<svg width="34" height="24" viewBox="0 0 34 24" fill="none" xmlns="http://www.w3.org/2000/svg">
<path opacity="0.5" d="M10 0H34V24H10L0 12L10 0Z" fill="#F0F1F4"/>
<path fill-rule="evenodd" clip-rule="evenodd" d="M25.4711 7.52864C25.7314 7.78899 25.7314 8.2111 25.4711 8.47145L17.4711 16.4714C17.2107 16.7318 16.7886 16.7318 16.5283 16.4714C16.2679 16.2111 16.2679 15.789 16.5283 15.5286L24.5283 7.52864C24.7886 7.26829 25.2107 7.26829 25.4711 7.52864Z" fill="#081742"/>
<path fill-rule="evenodd" clip-rule="evenodd" d="M16.5283 7.52864C16.7886 7.26829 17.2107 7.26829 17.4711 7.52864L25.4711 15.5286C25.7314 15.789 25.7314 16.2111 25.4711 16.4714C25.2107 16.7318 24.7886 16.7318 24.5283 16.4714L16.5283 8.47145C16.2679 8.2111 16.2679 7.78899 16.5283 7.52864Z" fill="#081742"/>
</svg>
