<svg width="24" height="24" viewBox="0 0 24 24" fill="none" xmlns="http://www.w3.org/2000/svg">
    <path
        d="M9.0695 11.0961H4.52646C4.12319 11.0962 3.7363 10.9366 3.45029 10.6523C3.16428 10.368 3.0024 9.98204 3 9.57877V5.03574C3.00238 4.63163 3.16397 4.24475 3.44972 3.959C3.73548 3.67325 4.12235 3.51166 4.52646 3.50928H9.0695C9.4736 3.51166 9.86048 3.67325 10.1462 3.959C10.432 4.24475 10.5936 4.63163 10.596 5.03574V9.57877C10.5936 9.98204 10.4317 10.368 10.1457 10.6523C9.85966 10.9366 9.47277 11.0962 9.0695 11.0961Z"
        fill="#B5B9C6" />
    <path
        d="M14.2481 11.096H18.7912C19.196 11.096 19.5843 10.9351 19.8705 10.6489C20.1568 10.3626 20.3176 9.97434 20.3176 9.5695V5.02646C20.3153 4.62235 20.1537 4.23548 19.8679 3.94972C19.5822 3.66397 19.1953 3.50238 18.7912 3.5H14.2481C13.844 3.50238 13.4572 3.66397 13.1714 3.94972C12.8857 4.23548 12.7241 4.62235 12.7217 5.02646V9.5695C12.7217 9.97434 12.8825 10.3626 13.1688 10.6489C13.455 10.9351 13.8433 11.096 14.2481 11.096Z"
        fill="#B5B9C6" />
    <path
        d="M9.0695 20.5H4.52646C4.12235 20.4976 3.73548 20.336 3.44972 20.0502C3.16397 19.7645 3.00238 19.3776 3 18.9735V14.4305C3.0024 14.0272 3.16428 13.6413 3.45029 13.357C3.7363 13.0727 4.12319 12.9131 4.52646 12.9131H9.0695C9.47434 12.9131 9.8626 13.0739 10.1489 13.3602C10.4351 13.6464 10.596 14.0347 10.596 14.4395V18.9826C10.5912 19.3851 10.4286 19.7697 10.1431 20.0535C9.85757 20.3373 9.47204 20.4976 9.0695 20.5Z"
        fill="#B5B9C6" />
    <path
        d="M18.7912 20.5H14.2481C13.844 20.4976 13.4572 20.336 13.1714 20.0502C12.8857 19.7645 12.7241 19.3776 12.7217 18.9735V14.4305C12.7241 14.0272 12.886 13.6413 13.172 13.357C13.458 13.0727 13.8449 12.9131 14.2481 12.9131H18.7912C19.196 12.9131 19.5843 13.0739 19.8705 13.3602C20.1568 13.6464 20.3176 14.0347 20.3176 14.4395V18.9826C20.3129 19.3851 20.1502 19.7697 19.8647 20.0535C19.5792 20.3373 19.1937 20.4976 18.7912 20.5Z"
        fill="#B5B9C6" />
</svg>
