<svg width="24" height="24" viewBox="0 0 24 24" fill="none" xmlns="http://www.w3.org/2000/svg">
<path fill-rule="evenodd" clip-rule="evenodd" d="M19.207 6.2125C19.3781 6.60625 19.5164 7.01641 19.6172 7.43594C21.307 7.95156 22.4766 9.54766 22.4789 11.357C22.4789 12.4469 22.0523 13.4758 21.2766 14.2516C20.857 14.6734 20.3672 14.9922 19.8234 15.1961C19.7719 16.0961 19.5656 16.968 19.2094 17.7906C18.8109 18.7117 18.2391 19.5367 17.5125 20.2445C16.7859 20.9523 15.9422 21.5078 15.0023 21.8945C14.0695 22.2812 13.0758 22.4852 12.0516 22.4992H11.9297C11.2125 22.4852 10.5422 22.1969 10.0383 21.6836C9.53203 21.1703 9.25547 20.4906 9.25547 19.7734C9.25547 19.0469 9.53906 18.3625 10.0547 17.8469C10.5703 17.3312 11.2547 17.0477 11.9812 17.0477H12.0516C12.7523 17.0664 13.4109 17.3523 13.9078 17.8516C14.4047 18.3508 14.6859 19.0117 14.7023 19.7125C14.7047 19.8859 14.693 20.057 14.6648 20.2258C15.2859 19.9328 15.8508 19.5391 16.3477 19.0539C17.5195 17.9102 18.1664 16.3914 18.1664 14.7766V9.22656C18.1664 7.61172 17.5195 6.09297 16.3477 4.94922C15.1664 3.80078 13.5961 3.16797 11.9273 3.16797C10.2586 3.16797 8.68828 3.80078 7.50703 4.95156C6.33516 6.09531 5.68828 7.61406 5.68828 9.22891L5.72344 14.5516C5.72578 14.7742 5.64141 14.9852 5.48438 15.1422C5.32969 15.3016 5.11406 15.3906 4.89375 15.3906C4.83516 15.3906 4.77656 15.3836 4.72031 15.3719C3.95625 15.2125 3.24844 14.8258 2.67891 14.2563C1.90312 13.4781 1.47656 12.4492 1.47656 11.3594C1.47656 10.4617 1.75781 9.60859 2.28984 8.89375C2.54297 8.54922 2.84766 8.24922 3.19453 8.00078C3.51562 7.77109 3.86484 7.59063 4.23516 7.46641C4.34063 7.03281 4.48125 6.61094 4.65469 6.2125C5.05312 5.29141 5.625 4.46641 6.35156 3.75859C7.07812 3.05078 7.92188 2.49531 8.86172 2.10859C9.83672 1.70781 10.8703 1.50391 11.9297 1.50391C12.9914 1.50391 14.025 1.70781 15 2.10859C15.9398 2.49766 16.7859 3.05313 17.5102 3.75859C18.2391 4.46875 18.8086 5.29375 19.207 6.2125ZM3.85781 13.0773C3.91172 13.1313 3.96797 13.1828 4.02656 13.232V9.45625C3.80156 9.64141 3.60938 9.86875 3.46406 10.1266C3.25312 10.4992 3.14062 10.9258 3.14062 11.3594C3.14062 12.0039 3.39609 12.6156 3.85781 13.0773ZM12.7383 20.5164C12.5461 20.7133 12.2906 20.8281 12.0164 20.8375H11.9648C11.3883 20.8305 10.9172 20.3547 10.9172 19.7758C10.9172 19.1898 11.393 18.7141 11.9789 18.7141C12.5648 18.7141 13.0406 19.1898 13.0406 19.7758C13.0383 20.0523 12.9328 20.3172 12.7383 20.5164ZM19.8305 13.307C19.9242 13.2367 20.0109 13.1617 20.0953 13.0773C20.557 12.6156 20.8125 12.0063 20.8102 11.3594C20.8102 10.907 20.6906 10.4664 20.4609 10.082C20.2969 9.80547 20.0813 9.56875 19.8305 9.38125V13.307Z" fill="#C7C7C7"/>
</svg>
