<svg width="24" height="24" viewBox="0 0 24 24" fill="none" xmlns="http://www.w3.org/2000/svg">
    <path
        d="M18.9722 12L21 10.1667C20.75 9 20.3056 7.91667 19.6667 6.94444L16.9167 7.08333L17.0556 4.33333C16.0833 3.69444 15 3.25 13.8333 3L12 5.02778L10.1667 3C9 3.25 7.91667 3.69444 6.94444 4.33333L7.08333 7.08333L4.33333 6.94444C3.69444 7.91667 3.25 9 3 10.1667L5.02778 12L3 13.8333C3.25 15 3.69444 16.0833 4.33333 17.0556L7.08333 16.9167L6.94444 19.6667C7.91667 20.3056 9 20.75 10.1667 21L12 18.9722L13.8333 21C15 20.75 16.0833 20.3056 17.0556 19.6667L16.9167 16.9167L19.6667 17.0556C20.3056 16.0833 20.75 15 21 13.8333L18.9722 12Z"
        stroke="#B5B9C6" stroke-width="1.6" stroke-linecap="round" stroke-linejoin="round" />
    <circle cx="12.1388" cy="12.1391" r="3.0463" stroke="#B5B9C6" stroke-width="1.6"
        stroke-linecap="round" stroke-linejoin="round" />
</svg>
